# xmcd
#
# Track frame offsets:
# 150
# 16173
# 29765
# 46312
# 64090
# 76607
# 100601
# 114757
# 131446
# 152139
# 171206
#
# Disc length: 2502 seconds
#
# Revision: 0
# Processed by: cddbd v1.5.1PL0 Copyright (c) Steve Scherf et al.
# Submitted via: Audion 3.0.2 (http://www.panic.com/audion/)
#
DISCID=7a09c40b
DTITLE=Meghan Hayes - Go And Give The Guard A Break
DYEAR=1900
DGENRE=
TTITLE0=I'm Not Leaving
TTITLE1=Desert
TTITLE2=Three O'Clock
TTITLE3=Nothin' Doin'
TTITLE4=Voice Like Mine
TTITLE5=Branson
TTITLE6=Four Tables and a Chair
TTITLE7=Tin
TTITLE8=Constantine
TTITLE9=Simple
TTITLE10=The Brighter They Come
EXTD=
EXTT0=
EXTT1=
EXTT2=
EXTT3=
EXTT4=
EXTT5=
EXTT6=
EXTT7=
EXTT8=
EXTT9=
EXTT10=
PLAYORDER=
